

<svg xmlns="http://www.w3.org/2000/svg" style="display: none">

  <symbol id="google-chat-svgrepo-com" viewBox="0 0 192 192">
    <path d="m28.828 169.172-4.242-4.243 4.242 4.243Zm19.657-19.657-4.242-4.243 4.242 4.243ZM34 68h84V56H34v12Zm90 6v60h12V74h-12Zm-96 72V74H16v72h12Zm-12 0v20.343h12V146H16Zm17.071 27.414 19.657-19.657-8.485-8.485-19.657 19.657 8.485 8.485ZM56.971 152H118v-12H56.97v12ZM16 166.343c0 8.909 10.771 13.371 17.071 7.071l-8.485-8.485c1.26-1.26 3.414-.368 3.414 1.414H16ZM124 134a6 6 0 0 1-6 6v12c9.941 0 18-8.059 18-18h-12Zm-6-66a6 6 0 0 1 6 6h12c0-9.941-8.059-18-18-18v12Zm-65.272 85.757A6 6 0 0 1 56.97 152v-12a17.999 17.999 0 0 0-12.728 5.272l8.485 8.485ZM34 56c-9.941 0-18 8.059-18 18h12a6 6 0 0 1 6-6V56Z"></path>
    <path d="M74 28h84V16H74v12Zm90 6v60h12V34h-12ZM68 64V34H56v30h12Zm62 48h28v-12h-28v12Zm34-18a6 6 0 0 1-6 6v12c9.941 0 18-8.059 18-18h-12Zm-6-66a6 6 0 0 1 6 6h12c0-9.941-8.059-18-18-18v12ZM74 16c-9.941 0-18 8.059-18 18h12a6 6 0 0 1 6-6V16Z"></path>
  </symbol>

  <symbol id="zulip-svgrepo-com" viewBox="0 0 48 48">
    <defs></defs>
    <path d="M41.54,10.22A6.27,6.27,0,0,1,39.34,15L26.21,26.76c-.21.2-.61-.1-.41-.4l4.82-9.63c.1-.3,0-.6-.3-.6H11.67c-2.91,0-5.21-2.6-5.21-5.81S8.76,4.5,11.67,4.5H36.23c2.91-.1,5.31,2.51,5.31,5.72ZM11.67,43.5H36.33c2.91,0,5.21-2.61,5.21-5.81s-2.3-5.82-5.21-5.82H17.68a.37.37,0,0,1-.3-.6l4.82-9.62a.29.29,0,0,0-.41-.41L8.66,32.87a6.3,6.3,0,0,0-2.2,4.82c0,3.2,2.4,5.81,5.21,5.81Z"></path>
  </symbol>

</svg>